<svg width="49" height="48" viewBox="0 0 49 48" fill="none" xmlns="http://www.w3.org/2000/svg">
<path fill-rule="evenodd" clip-rule="evenodd" d="M3.25 24C3.25 12.2639 12.7639 2.75 24.5 2.75C36.236 2.75 45.75 12.2639 45.75 24C45.75 35.736 36.236 45.25 24.5 45.25C12.7639 45.25 3.25 35.736 3.25 24ZM24.5 0.25C11.3832 0.25 0.75 10.8832 0.75 24C0.75 37.1168 11.3832 47.75 24.5 47.75C37.6168 47.75 48.25 37.1168 48.25 24C48.25 10.8832 37.6168 0.25 24.5 0.25ZM25.75 7.75C25.75 7.05964 25.1904 6.5 24.5 6.5C23.8096 6.5 23.25 7.05964 23.25 7.75V24C23.25 24.6904 23.8096 25.25 24.5 25.25H39.5C40.1904 25.25 40.75 24.6904 40.75 24C40.75 23.3096 40.1904 22.75 39.5 22.75H25.75V7.75Z" fill="#308BB3"/>
</svg>
